<svg xmlns="http://www.w3.org/2000/svg" width="46" height="46" viewBox="0 0 46 46">
    <g fill="none" fill-rule="evenodd">
        <g>
            <g transform="translate(-168 -31) translate(168 31)">
                <circle cx="23" cy="23" r="23" fill="#39AB77"/>
                <path fill="#FFF" d="M21.99 17.964c.128 0 .235.04.32.12.086.08.124.185.113.313-.043.62-.238 1.214-.585 1.781s-.871 1.03-1.571 1.388c-.7.359-1.574.538-2.621.538-1.432 0-2.554-.404-3.366-1.211-.812-.808-1.261-1.88-1.347-3.218-.021-.535-.032-.984-.032-1.348 0-.363.01-.813.032-1.348.086-1.337.535-2.41 1.347-3.217.812-.808 1.934-1.212 3.366-1.212 1.047 0 1.92.18 2.62.538.7.358 1.225.821 1.572 1.388s.542 1.16.585 1.781c.01.129-.027.233-.112.313-.086.08-.193.12-.32.12h-1.3c-.106 0-.208-.037-.304-.112-.096-.075-.155-.176-.176-.305-.086-.481-.34-.888-.762-1.22-.422-.33-1.023-.497-1.803-.497-.79 0-1.403.225-1.835.674-.433.45-.671 1.033-.714 1.75-.021.534-.032.984-.032 1.347 0 .364.01.813.032 1.348.043.717.28 1.3.714 1.75.432.449 1.044.673 1.835.673.78 0 1.384-.166 1.811-.497.428-.332.684-.738.77-1.22.021-.128.077-.23.168-.305.091-.075.19-.112.297-.112h1.298zm6.877-7.253c1.314 0 2.324.31 3.03.93.705.621 1.058 1.482 1.058 2.584 0 .781-.182 1.447-.545 1.998-.364.55-.887.96-1.571 1.228l2.212 3.963c.032.064.048.123.048.177 0 .096-.035.179-.104.248-.07.07-.153.105-.249.105h-1.362c-.31 0-.54-.145-.69-.434l-2.1-3.739h-2.132v3.74c0 .117-.042.219-.128.304-.085.086-.187.129-.304.129H24.73c-.117 0-.219-.043-.304-.129-.086-.085-.129-.187-.129-.305V11.144c0-.117.043-.22.129-.305.085-.085.187-.128.304-.128h4.136zm-.08 5.055c.652 0 1.149-.115 1.49-.345.343-.23.514-.629.514-1.196s-.169-.96-.505-1.18c-.337-.219-.837-.328-1.5-.328h-2.324v3.049h2.325zM15.762 30.78v2.664h5.306c.118 0 .22.042.305.128.085.086.128.187.128.305v1.14c0 .117-.043.219-.128.304-.086.086-.187.129-.305.129h-7.037c-.117 0-.219-.043-.304-.129-.086-.085-.129-.187-.129-.305V24.65c0-.118.043-.22.129-.305.085-.085.187-.128.304-.128h6.91c.117 0 .218.043.304.128.085.086.128.187.128.305v1.14c0 .117-.043.219-.128.304-.086.086-.187.129-.305.129h-5.178v2.551h4.825c.118 0 .22.043.305.128.086.086.128.188.128.305v1.14c0 .117-.042.219-.128.305-.085.085-.187.128-.305.128h-4.825zm16.912-2.134c.021.267.032.663.032 1.187s-.01.92-.032 1.188c-.085 1.401-.518 2.49-1.298 3.265-.78.776-1.919 1.164-3.415 1.164h-4.04c-.117 0-.218-.043-.304-.129-.085-.085-.128-.187-.128-.305V24.65c0-.118.043-.22.128-.305.086-.085.187-.128.305-.128h3.96c1.527 0 2.687.388 3.478 1.163.79.776 1.229 1.864 1.314 3.266zm-7.021-2.423v7.22h2.228c.844 0 1.483-.219 1.916-.657.432-.439.67-1.027.713-1.765.021-.268.032-.664.032-1.188 0-.524-.01-.92-.032-1.187-.043-.738-.286-1.327-.73-1.765-.443-.439-1.103-.658-1.979-.658h-2.148z"/>
            </g>
        </g>
    </g>
</svg>
