<?xml version="1.0" standalone="no"?>
<!DOCTYPE svg PUBLIC "-//W3C//DTD SVG 20010904//EN"
 "http://www.w3.org/TR/2001/REC-SVG-20010904/DTD/svg10.dtd">
<svg version="1.0" xmlns="http://www.w3.org/2000/svg"
 width="700.000000pt" height="700.000000pt" viewBox="0 0 700.000000 700.000000"
 preserveAspectRatio="xMidYMid meet">
<metadata>
Created by potrace 1.11, written by Peter Selinger 2001-2013
</metadata>
<g transform="translate(0.000000,700.000000) scale(0.100000,-0.100000)"
fill="#000000" stroke="none">
<path d="M3280 6994 c-19 -2 -84 -9 -145 -15 -734 -71 -1454 -395 -1995 -897
-522 -484 -870 -1068 -1035 -1734 -74 -302 -99 -512 -99 -848 0 -268 7 -363
45 -588 166 -997 771 -1881 1648 -2411 422 -255 877 -411 1396 -478 196 -25
614 -25 810 0 430 56 786 162 1155 346 729 364 1312 973 1639 1714 144 325
238 675 283 1052 16 139 16 595 0 730 -95 786 -402 1459 -915 2010 -582 625
-1309 996 -2160 1101 -115 14 -550 27 -627 18z m-382 -1620 c155 -32 303 -116
384 -217 55 -70 107 -181 120 -259 22 -124 0 -142 -170 -136 -123 3 -145 14
-158 72 -19 88 -94 180 -180 217 -69 31 -191 45 -276 32 -135 -19 -226 -84
-280 -199 -37 -80 -53 -243 -43 -465 8 -216 27 -278 108 -366 53 -58 119 -90
211 -105 95 -15 219 1 293 38 71 34 138 111 160 182 27 92 34 97 171 100 144
3 166 -5 170 -65 2 -22 -4 -69 -13 -104 -59 -228 -238 -388 -494 -441 -140
-29 -362 -22 -476 15 -212 70 -363 228 -425 447 -49 174 -49 617 0 790 52 182
175 335 331 409 46 23 113 47 149 55 92 20 322 20 418 0z m1666 -19 c210 -37
351 -142 417 -313 27 -70 38 -257 20 -345 -28 -130 -126 -261 -243 -322 -32
-16 -58 -33 -58 -36 0 -4 75 -141 166 -305 92 -164 169 -306 171 -315 3 -9 -5
-27 -16 -38 -19 -19 -32 -21 -148 -21 -104 0 -133 3 -156 18 -21 12 -76 102
-197 317 l-168 300 -161 3 -161 2 0 -295 0 -296 -25 -24 c-23 -24 -30 -25
-145 -25 -107 0 -122 2 -140 20 -20 20 -20 33 -20 835 0 802 0 815 20 835 19
19 33 20 389 20 283 0 388 -3 455 -15z m-1335 -2059 c19 -17 21 -30 21 -133 0
-168 44 -153 -445 -153 l-405 0 0 -195 0 -195 380 0 c459 0 420 14 420 -148 0
-81 -4 -113 -16 -130 l-15 -22 -385 0 -384 0 0 -205 0 -205 415 0 c500 0 455
15 455 -152 0 -90 -3 -115 -17 -130 -15 -17 -46 -18 -581 -18 -512 0 -567 2
-584 17 -17 15 -18 54 -18 833 0 766 1 818 18 832 9 9 24 18 32 21 8 3 256 5
551 4 513 -2 538 -3 558 -21z m1091 15 c211 -17 329 -63 446 -174 125 -118
186 -266 205 -502 13 -152 5 -387 -17 -494 -55 -268 -205 -438 -449 -508 -51
-15 -119 -18 -465 -21 -222 -2 -414 -1 -425 2 -12 3 -27 17 -33 31 -17 37 -17
1593 -1 1629 7 14 24 30 38 35 33 12 550 13 701 2z"/>
<path d="M4030 4835 l0 -237 238 4 c220 3 241 5 287 26 97 45 126 92 126 207
0 86 -16 131 -60 168 -57 48 -115 58 -363 64 l-228 6 0 -238z"/>
<path d="M3900 2460 l0 -550 193 0 c207 0 285 9 356 43 87 41 156 131 181 239
17 73 23 325 11 443 -22 216 -116 330 -301 365 -29 5 -140 10 -246 10 l-194 0
0 -550z"/>
</g>
</svg>
